<?xml version="1.0" encoding="UTF-8"?>
<svg width="21px" height="21px" viewBox="0 0 21 21" version="1.1" xmlns="http://www.w3.org/2000/svg">
    <g stroke="none" stroke-width="1" fill="none" fill-rule="evenodd">
        <path d="M10.5,0 C16.2989899,0 21,4.70101013 21,10.5 C21,16.2989899 16.2989899,21 10.5,21 C4.70101013,21 0,16.2989899 0,10.5 C0,4.70101013 4.70101013,0 10.5,0 Z M10.5,1.75 C5.66751709,1.75 1.75,5.66751709 1.75,10.5 C1.75,15.3324829 5.66751709,19.25 10.5,19.25 C15.3324829,19.25 19.25,15.3324829 19.25,10.5 C19.25,5.66751709 15.3324829,1.75 10.5,1.75 Z" fill="#666666"/>
        <path d="M11.7857143,4.375 L11.7857143,9.61160714 L16.625,9.61160714 L16.625,11.3883929 L11.7857143,11.3883929 L11.7857143,16.625 L9.21428571,16.625 L9.21428571,11.3883929 L4.375,11.3883929 L4.375,9.61160714 L9.21428571,9.61160714 L9.21428571,4.375 L11.7857143,4.375 Z" fill="#666666"/>
    </g>
</svg>
