<?xml version="1.0" encoding="UTF-8"?>
<svg width="24px" height="24px" viewBox="0 0 24 24" version="1.1" xmlns="http://www.w3.org/2000/svg">
    <g stroke="none" stroke-width="1" fill="none" fill-rule="evenodd">
        <path d="M17.0396,3.0405 C17.8046,2.0905 18.3196,0.8105 18.1496,-0.0005 C17.0696,0.0395 15.7896,0.6905 14.9996,1.6405 C14.2846,2.4905 13.6646,3.8005 13.8646,4.5805 C15.0446,4.6505 16.2746,3.9905 17.0396,3.0405" fill="#000000"/>
        <path d="M18.1396,4.7993 C16.4096,4.6793 14.9796,5.7693 14.2096,5.7693 C13.4396,5.7693 12.2396,4.8493 10.7896,4.8493 C8.8696,4.8793 6.7996,6.1493 5.6796,8.1393 C3.5096,12.1193 5.0396,17.9493 7.1496,21.1293 C8.1896,22.6893 9.4596,24.4393 11.1496,24.3993 C12.7696,24.3593 13.3696,23.3693 15.2896,23.3693 C17.2096,23.3693 17.7496,24.3993 19.4496,24.3793 C21.1896,24.3593 22.2896,22.8193 23.3296,21.2593 C24.5196,19.4793 24.9996,17.7593 25.0396,17.6393 C24.9996,17.6193 21.3696,16.2493 21.3296,12.3193 C21.2896,9.0393 24.1596,7.3993 24.2796,7.3193 C22.7196,5.1093 20.3096,4.8793 19.4896,4.8193 C17.6496,4.6793 16.0896,5.8793 15.1296,5.8793 C14.1696,5.8793 12.8296,4.8793 11.2896,4.8793 C11.1496,4.8793 10.9996,4.8793 10.8496,4.8893 C10.9396,4.8593 11.0296,4.8293 11.1196,4.7993 C12.2996,4.1593 13.1296,3.0793 13.3696,1.8393 C13.0896,1.8193 12.8096,1.8193 12.5496,1.8393 C11.3696,1.9993 10.3296,2.6793 9.5496,3.6793 C8.7696,4.6793 8.2896,5.9793 8.1796,7.3193 C8.3296,7.3093 8.4796,7.2993 8.6296,7.2993 C9.8096,7.2993 10.9696,7.7193 11.8896,8.4793 C11.6896,8.0993 11.5296,7.7193 11.3996,7.3193 C10.9196,5.9793 10.8096,4.5593 11.0496,3.1793 C10.0896,3.5593 9.2296,4.1193 8.5096,4.7993 C7.4296,5.7993 6.5896,7.0393 6.0696,8.3993 C6.3896,8.1593 6.7296,7.9593 7.0896,7.7993 C8.2696,7.2793 9.5696,7.0793 10.8496,7.1993 C10.0296,6.0393 9.5496,4.6793 9.4796,3.2793 C9.0796,3.5193 8.6996,3.7993 8.3496,4.0793 C7.0896,5.1593 6.1296,6.5193 5.5296,7.9993 C5.9296,7.5993 6.3896,7.2593 6.8896,6.9593 C7.9696,6.3193 9.1896,5.9593 10.4296,5.8793 C9.8496,4.8793 9.4796,3.7993 9.2896,2.6793 C8.9696,2.8793 8.6696,3.0793 8.3896,3.2993 C6.9396,4.4793 5.8096,5.9993 5.0896,7.6793 C5.4496,7.1993 5.8896,6.7593 6.3696,6.3993 C7.2896,5.6793 8.3496,5.1593 9.4796,4.8793 C9.3896,4.4793 9.3296,4.0793 9.2896,3.6793 C8.9696,3.8793 8.6696,4.0793 8.3896,4.2993 C7.1296,5.3193 6.1296,6.6393 5.4496,8.0793 C5.7496,7.6793 6.1096,7.2993 6.5096,6.9793 C7.3096,6.3793 8.2296,5.9593 9.1896,5.7193 C9.1296,5.4793 9.0896,5.2393 9.0496,4.9993 C8.7296,5.1993 8.4296,5.3993 8.1496,5.6193 C6.9696,6.5593 6.0496,7.7593 5.4496,9.0793 C5.6896,8.7593 5.9696,8.4593 6.2696,8.1993 C6.9696,7.6393 7.7696,7.2393 8.6096,6.9793 C8.5696,6.7993 8.5496,6.5993 8.5296,6.4193 C8.2096,6.6193 7.9096,6.8193 7.6296,7.0393 C6.5296,7.9193 5.6896,9.0393 5.1296,10.2793 C5.3296,10.0193 5.5496,9.7793 5.7896,9.5593 C6.3896,9.0393 7.0896,8.6793 7.8096,8.4393 C7.7896,8.2993 7.7696,8.1593 7.7496,8.0193 C7.4296,8.2193 7.1296,8.4193 6.8496,8.6393 C5.8296,9.4593 5.0496,10.4793 4.5496,11.5993 C4.7096,11.3793 4.8896,11.1793 5.0896,10.9993 C5.5896,10.5393 6.1896,10.2193 6.8096,9.9993 C6.7896,9.8993 6.7696,9.7793 6.7496,9.6793 C6.4296,9.8793 6.1296,10.0793 5.8496,10.2993 C4.9096,11.0593 4.2096,11.9993 3.7496,13.0193 C3.8696,12.8393 4.0096,12.6793 4.1696,12.5393 C4.5696,12.1393 5.0696,11.8593 5.5896,11.6593 C5.5696,11.5793 5.5496,11.4993 5.5296,11.4193 C5.2096,11.6193 4.9096,11.8193 4.6296,12.0393 C3.7696,12.7393 3.1496,13.5993 2.7496,14.5193 C2.8296,14.3793 2.9296,14.2593 3.0496,14.1393 C3.3496,13.8393 3.7496,13.6193 4.1696,13.4593 C4.1496,13.3993 4.1296,13.3393 4.1096,13.2793 C3.7896,13.4793 3.4896,13.6793 3.2096,13.8993 C2.4296,14.5393 1.8896,15.3193 1.5496,16.1593 C1.5896,16.0593 1.6496,15.9793 1.7296,15.8993 C1.9296,15.6793 2.2296,15.5193 2.5496,15.3993 C2.5296,15.3593 2.5096,15.3193 2.4896,15.2793 C2.1696,15.4793 1.8696,15.6793 1.5896,15.8993 C0.8896,16.4793 0.4296,17.1793 0.1896,17.9193 C0.1896,17.8593 0.2096,17.7993 0.2496,17.7393 C0.3696,17.5793 0.5696,17.4593 0.7896,17.3793 C0.7696,17.3593 0.7496,17.3393 0.7296,17.3193 C0.4096,17.5193 0.1096,17.7193 -0.1704,17.9393 C-0.1704,17.9393 -0.1704,17.9393 -0.1704,17.9393" fill="#000000"/>
    </g>
</svg>
